<?xml version="1.0" encoding="utf-8"?>
<!-- Generator: Adobe Illustrator 24.2.3, SVG Export Plug-In . SVG Version: 6.00 Build 0)  -->
<svg version="1.1" id="Camada_1" xmlns="http://www.w3.org/2000/svg" xmlns:xlink="http://www.w3.org/1999/xlink" x="0px" y="0px"
	 viewBox="0 0 15 15" style="enable-background:new 0 0 15 15;" xml:space="preserve">
<style type="text/css">
	.st0{fill:#FFFFFF;}
</style>
<path class="st0" d="M9.8,11.1l-0.4,0.2l0,0L9.8,11.1z M9.5,10.5l0.4-0.2C9.9,10.1,9.7,10,9.5,10V10.5z M5.5,10.5V10
	c-0.2,0-0.4,0.1-0.4,0.3L5.5,10.5z M14,5.5V10h1V5.5H14z M10.3,10.9l-0.3-0.6l-0.9,0.4l0.3,0.6L10.3,10.9z M9.5,10h-4v1h4V10z
	 M5.1,10.3l-0.3,0.6l0.9,0.4l0.3-0.6L5.1,10.3z M1,10V5.5H0V10H1z M3.5,3h8V2h-8V3z M3,12c-1.1,0-2-0.9-2-2H0c0,1.6,1.3,3,3,3V12z
	 M12,12c-0.7,0-1.4-0.4-1.8-1.1l-0.9,0.4c0.5,1,1.5,1.6,2.7,1.6V12z M14,10c0,1.1-0.9,2-2,2v1c1.6,0,3-1.3,3-3H14z M4.7,10.9
	C4.4,11.6,3.7,12,3,12v1c1.1,0,2.2-0.6,2.7-1.6L4.7,10.9z M15,5.5C15,3.6,13.4,2,11.5,2v1C12.9,3,14,4.1,14,5.5H15z M1,5.5
	C1,4.1,2.1,3,3.5,3V2C1.6,2,0,3.6,0,5.5H1z M3,7h3V6H3V7z M4,5v3h1V5H4z M11,6h1V5h-1V6z M9,8h1V7H9V8z"/>
</svg>
